<?xml version="1.0" encoding="UTF-8" standalone="no"?>
<svg
   width="32"
   height="32"
   viewBox="0 0 32 32"
   version="1.1"
   id="svg1"
   sodipodi:docname="grave_yard_muslim.svg"
   inkscape:version="1.3.1 (9b9bdc1480, 2023-11-25, custom)"
   xmlns:inkscape="http://www.inkscape.org/namespaces/inkscape"
   xmlns:sodipodi="http://sodipodi.sourceforge.net/DTD/sodipodi-0.dtd"
   xmlns="http://www.w3.org/2000/svg"
   xmlns:svg="http://www.w3.org/2000/svg">
  <defs
     id="defs1" />
  <sodipodi:namedview
     id="namedview1"
     pagecolor="#ffffff"
     bordercolor="#000000"
     borderopacity="0.25"
     inkscape:showpageshadow="2"
     inkscape:pageopacity="0.0"
     inkscape:pagecheckerboard="0"
     inkscape:deskcolor="#d1d1d1"
     inkscape:zoom="25.5"
     inkscape:cx="15.980392"
     inkscape:cy="16"
     inkscape:window-width="1858"
     inkscape:window-height="1016"
     inkscape:window-x="0"
     inkscape:window-y="0"
     inkscape:window-maximized="1"
     inkscape:current-layer="svg1" />
  <rect
     id="mapnik_workaround"
     width="32"
     height="32"
     fill="none" />
  <path
     id="muslim"
     d="m9.2857 5c-2.4217 0-4.2857 1.9572-4.2857 4.5 0 2.5428 1.864 4.5 4.2857 4.5 1.354 0 2.7671-0.48727 3.5714-1.5-0.52557 0.35925-1.469 0.75-2.1429 0.75-1.8519 0-3.5714-1.8055-3.5714-3.75 0-1.9445 1.7195-3.75 3.5714-3.75 0.67386 0 1.6173 0.39082 2.1429 0.75-0.80434-1.0127-2.2174-1.5-3.5714-1.5zm3.2143 2.25-0.71428 1.5h-1.7857l1.4286 1.125-0.71429 1.875 1.7857-1.125 1.7857 1.125-0.71429-1.875 1.4286-1.125h-1.7857z"
     fill="#88b78e"
     style="fill:#000000;fill-opacity:1" />
</svg>
