<?xml version="1.0" encoding="UTF-8" standalone="no"?>
<svg
   width="30"
   height="30"
   viewBox="0 0 30 30"
   version="1.1"
   id="svg1"
   sodipodi:docname="plant_nursery.svg"
   inkscape:version="1.3.1 (9b9bdc1480, 2023-11-25, custom)"
   xmlns:inkscape="http://www.inkscape.org/namespaces/inkscape"
   xmlns:sodipodi="http://sodipodi.sourceforge.net/DTD/sodipodi-0.dtd"
   xmlns="http://www.w3.org/2000/svg"
   xmlns:svg="http://www.w3.org/2000/svg">
  <defs
     id="defs1" />
  <sodipodi:namedview
     id="namedview1"
     pagecolor="#ffffff"
     bordercolor="#000000"
     borderopacity="0.25"
     inkscape:showpageshadow="2"
     inkscape:pageopacity="0.0"
     inkscape:pagecheckerboard="0"
     inkscape:deskcolor="#d1d1d1"
     inkscape:zoom="27.2"
     inkscape:cx="14.981618"
     inkscape:cy="15"
     inkscape:window-width="1858"
     inkscape:window-height="1016"
     inkscape:window-x="0"
     inkscape:window-y="0"
     inkscape:window-maximized="1"
     inkscape:current-layer="svg1" />
  <rect
     id="mapnik_workaround"
     width="30"
     height="30"
     fill="none" />
  <path
     stroke-width="1"
     stroke="#0e5500"
     opacity=".575"
     d=" M1,2.5 h1 m5,0 h1 m5,0 h1 m5,0 h1 m5,0 h1 M4,7.5 h1 m5,0 h1 m5,0 h1 m5,0 h1 m5,0 h1 M1,12.5 h1 m5,0 h1 m5,0 h1 m5,0 h1 m5,0 h1 M4,17.5 h1 m5,0 h1 m5,0 h1 m5,0 h1 m5,0 h1 M1,22.5 h1 m5,0 h1 m5,0 h1 m5,0 h1 m5,0 h1 M4,27.5 h1 m5,0 h1 m5,0 h1 m5,0 h1 m5,0 h1"
     id="path1"
     style="fill:#000000;fill-opacity:1;stroke:#000000;stroke-opacity:1" />
</svg>
