<?xml version="1.0" encoding="UTF-8" standalone="no"?>
<svg
   width="32"
   height="32"
   viewBox="0 0 32 32"
   version="1.1"
   id="svg1"
   sodipodi:docname="vineyard.svg"
   inkscape:version="1.3.1 (9b9bdc1480, 2023-11-25, custom)"
   xmlns:inkscape="http://www.inkscape.org/namespaces/inkscape"
   xmlns:sodipodi="http://sodipodi.sourceforge.net/DTD/sodipodi-0.dtd"
   xmlns="http://www.w3.org/2000/svg"
   xmlns:svg="http://www.w3.org/2000/svg">
  <defs
     id="defs1" />
  <sodipodi:namedview
     id="namedview1"
     pagecolor="#ffffff"
     bordercolor="#000000"
     borderopacity="0.25"
     inkscape:showpageshadow="2"
     inkscape:pageopacity="0.0"
     inkscape:pagecheckerboard="0"
     inkscape:deskcolor="#d1d1d1"
     inkscape:zoom="25.5"
     inkscape:cx="15.980392"
     inkscape:cy="16"
     inkscape:window-width="1858"
     inkscape:window-height="1016"
     inkscape:window-x="0"
     inkscape:window-y="0"
     inkscape:window-maximized="1"
     inkscape:current-layer="svg1" />
  <rect
     id="mapnik_workaround"
     width="32"
     height="32"
     fill="none" />
  <path
     stroke-width="1"
     stroke="#759e6c"
     opacity=".38"
     d=" M0.5,0 v5 m0,6 v5 m0,5.5 v5 M4.5,5.5 v5 m0,5.5 v5 m0,6 v5 M8.5,0 v5 m0,6 v5 m0,5.5 v5 M12.5,5.5 v5 m0,5.5 v5 m0,6 v5 M16.5,0 v5 m0,6 v5 m0,5.5 v5 M20.5,5.5 v5 m0,5.5 v5 m0,6 v5 M24.5,0 v5 m0,6 v5 m0,5.5 v5 M28.5,5.5 v5 m0,5.5 v5 m0,6 v5"
     id="path1"
     style="stroke:#000000;stroke-opacity:1" />
</svg>
